<svg viewBox="0 0 16 16" fill="none" xmlns="http://www.w3.org/2000/svg">
    <path fill-rule="evenodd" clip-rule="evenodd" d="M7.99217 0.222168C3.69883 0.222168 0.222168 3.70661 0.222168 7.99995C0.222168 12.2933 3.69883 15.7777 7.99217 15.7777C12.2933 15.7777 15.7777 12.2933 15.7777 7.99995C15.7777 3.70661 12.2933 0.222168 7.99217 0.222168ZM8.77772 4.11106H7.22217V8.77773H8.77772V4.11106ZM8.77772 10.3333H7.22217V11.8888H8.77772V10.3333ZM1.77767 7.99995C1.77767 11.4377 4.56211 14.2222 7.99989 14.2222C11.4377 14.2222 14.2221 11.4377 14.2221 7.99995C14.2221 4.56217 11.4377 1.77773 7.99989 1.77773C4.56211 1.77773 1.77767 4.56217 1.77767 7.99995Z" fill="currentColor"/>
</svg>
