<svg width="32" height="32" viewBox="0 0 32 32" fill="none" xmlns="http://www.w3.org/2000/svg">
    <path fill-rule="evenodd" clip-rule="evenodd" d="M15.9994 0.0123386C7.17419 0.0123386 0.0117188 7.17481 0.0117188 16C0.0117188 24.8252 7.17419 31.9876 15.9994 31.9876C24.8246 31.9876 31.987 24.8252 31.987 16C31.987 7.17481 24.8246 0.0123386 15.9994 0.0123386ZM15.9994 28.7901C8.94888 28.7901 3.20931 23.0505 3.20931 16C3.20931 8.94943 8.94888 3.20986 15.9994 3.20986C23.05 3.20986 28.7896 8.94943 28.7896 16C28.7896 23.0505 23.05 28.7901 15.9994 28.7901ZM12.8018 19.4693L23.3376 8.93346L25.5919 11.2037L12.8018 23.9938L6.40672 17.5988L8.66098 15.3445L12.8018 19.4693Z" fill="#49CA1C"/>
</svg>
