<svg viewBox="0 0 32 24" fill="none" xmlns="http://www.w3.org/2000/svg">
    <path d="M28.0935 0H3.91309C1.7546 0 0 1.7292 0 3.85644V20.1436C0 22.2708 1.7546 24 3.91309 24H28.0869C30.2454 24 32 22.2708 32 20.1436V3.86297C32.0066 1.73573 30.252 0 28.0935 0ZM30.2189 20.1436C30.2189 21.2985 29.2654 22.2382 28.0935 22.2382H3.91309C2.74115 22.2382 1.78771 21.2985 1.78771 20.1436V3.86297C1.78771 2.70799 2.74115 1.76835 3.91309 1.76835H28.0869C29.2588 1.76835 30.2123 2.70799 30.2123 3.86297V20.1436H30.2189Z" fill="currentColor"/>
    <path d="M20.1812 11.7977L28.0074 4.88091C28.3716 4.55465 28.4047 4 28.0736 3.63458C27.7426 3.27569 27.1798 3.24307 26.809 3.56933L16.0165 13.1158L13.911 11.2626C13.9044 11.2561 13.8978 11.2496 13.8978 11.2431C13.8514 11.1974 13.8051 11.1582 13.7521 11.1191L5.18435 3.56281C4.81357 3.23654 4.25077 3.26917 3.91972 3.63458C3.58866 4 3.62176 4.55465 3.99255 4.88091L11.9114 11.8564L4.02565 19.1321C3.66811 19.4649 3.64825 20.0196 3.98593 20.3785C4.1647 20.5612 4.40306 20.6591 4.64142 20.6591C4.85992 20.6591 5.07842 20.5808 5.25057 20.4241L13.2555 13.044L15.4273 14.956C15.5994 15.106 15.8113 15.1778 16.0232 15.1778C16.235 15.1778 16.4535 15.0995 16.6191 14.9494L18.8504 12.9788L26.809 20.4307C26.9812 20.5938 27.2063 20.6721 27.4248 20.6721C27.6631 20.6721 27.8949 20.5808 28.0736 20.398C28.4113 20.0457 28.3981 19.4845 28.0405 19.1517L20.1812 11.7977Z" fill="currentColor"/>
</svg>
