<svg viewBox="0 0 16 17" fill="none" xmlns="http://www.w3.org/2000/svg">
    <path fill-rule="evenodd" clip-rule="evenodd" d="M14.4859 0.631287L0.631348 14.4859L1.9529 15.8074L15.8075 1.95284L14.4859 0.631287ZM8 13.9091C7.04961 13.9091 6.1355 13.7546 5.28114 13.4693L6.84656 11.9039C7.20903 12.0252 7.59689 12.0909 8 12.0909C10.0073 12.0909 11.6364 10.4618 11.6364 8.45452C11.6364 8.05141 11.5707 7.66356 11.4494 7.30108L13.6385 5.112C14.6719 6.01277 15.4886 7.15674 16 8.45452C14.7418 11.6473 11.6364 13.9091 8 13.9091ZM8.11721 10.6333C9.23092 10.5746 10.1201 9.68544 10.1787 8.57173L8.11721 10.6333ZM5.82325 8.30423L7.84971 6.27777C6.76252 6.35132 5.8968 7.21704 5.82325 8.30423ZM8 4.81816C8.39446 4.81816 8.77432 4.88107 9.13007 4.9974L10.6955 3.43196C9.84787 3.15168 8.94174 2.99998 8 2.99998C4.36364 2.99998 1.25818 5.2618 0 8.45452C0.508686 9.74535 1.31933 10.884 2.34493 11.7825L4.54288 9.5846C4.42655 9.22884 4.36364 8.84898 4.36364 8.45452C4.36364 6.44725 5.99273 4.81816 8 4.81816Z" fill="currentColor"/>
</svg>
