<svg viewBox="0 0 21 19" fill="none" xmlns="http://www.w3.org/2000/svg">
    <path fill-rule="evenodd" clip-rule="evenodd" d="M17.7913 5.33333H16.7497V0.125H4.24967V5.33333H3.20801C1.47884 5.33333 0.0830078 6.72917 0.0830078 8.45833V14.7083H4.24967V18.875H16.7497V14.7083H20.9163V8.45833C20.9163 6.72917 19.5205 5.33333 17.7913 5.33333ZM6.33301 2.20833H14.6663V5.33333H6.33301V2.20833ZM14.6663 16.7917V14.7083V12.625H6.33301V16.7917H14.6663ZM16.7497 12.625V10.5417H4.24968V12.625H2.16635V8.45833C2.16635 7.88541 2.6351 7.41666 3.20802 7.41666H17.7913C18.3643 7.41666 18.833 7.88541 18.833 8.45833V12.625H16.7497ZM15.708 8.97917C15.708 8.40387 16.1744 7.9375 16.7497 7.9375C17.325 7.9375 17.7913 8.40387 17.7913 8.97917C17.7913 9.55446 17.325 10.0208 16.7497 10.0208C16.1744 10.0208 15.708 9.55446 15.708 8.97917Z" fill="currentColor"/>
</svg>
