<svg viewBox="0 0 44 44" fill="none" xmlns="http://www.w3.org/2000/svg">
    <path fill-rule="evenodd" clip-rule="evenodd" d="M21.9779 0.39502C10.0519 0.39502 0.394531 10.074 0.394531 22C0.394531 33.9259 10.0519 43.6049 21.9779 43.6049C33.9254 43.6049 43.6044 33.9259 43.6044 22C43.6044 10.074 33.9254 0.39502 21.9779 0.39502ZM24.16 11.1975H19.839V24.1604H24.16V11.1975ZM24.16 28.4815H19.839V32.8024H24.16V28.4815ZM4.71566 21.9999C4.71566 31.5493 12.4502 39.2839 21.9996 39.2839C31.549 39.2839 39.2836 31.5493 39.2836 21.9999C39.2836 12.4506 31.549 4.71599 21.9996 4.71599C12.4502 4.71599 4.71566 12.4506 4.71566 21.9999Z" fill="currentColor"/>
</svg>
